<?xml version="1.0" encoding="utf-8"?>
<!-- Generator: Adobe Illustrator 16.0.0, SVG Export Plug-In . SVG Version: 6.00 Build 0)  -->
<!DOCTYPE svg PUBLIC "-//W3C//DTD SVG 1.1//EN" "http://www.w3.org/Graphics/SVG/1.1/DTD/svg11.dtd" [
	<!ENTITY ns_extend "http://ns.adobe.com/Extensibility/1.0/">
	<!ENTITY ns_ai "http://ns.adobe.com/AdobeIllustrator/10.0/">
	<!ENTITY ns_graphs "http://ns.adobe.com/Graphs/1.0/">
	<!ENTITY ns_vars "http://ns.adobe.com/Variables/1.0/">
	<!ENTITY ns_imrep "http://ns.adobe.com/ImageReplacement/1.0/">
	<!ENTITY ns_sfw "http://ns.adobe.com/SaveForWeb/1.0/">
	<!ENTITY ns_custom "http://ns.adobe.com/GenericCustomNamespace/1.0/">
	<!ENTITY ns_adobe_xpath "http://ns.adobe.com/XPath/1.0/">
]>
<svg version="1.1" id="Capa_1" xmlns:x="&ns_extend;" xmlns:i="&ns_ai;" xmlns:graph="&ns_graphs;"
	 xmlns="http://www.w3.org/2000/svg" xmlns:xlink="http://www.w3.org/1999/xlink" x="0px" y="0px" width="140px" height="62px"
	 viewBox="0 0 140 62" enable-background="new 0 0 140 62" xml:space="preserve">
<metadata>
	<sfw  xmlns="&ns_sfw;">
		<slices></slices>
		<sliceSourceBounds  width="138" height="55.668" y="3.677" x="0.5" bottomLeftOrigin="true"></sliceSourceBounds>
	</sfw>
</metadata>
<g enable-background="new    ">
	<path fill="#D2C398" d="M48.865,41.057v-21.05h9.458v3.174h-4.812v5.205h3.669v3.237h-3.669v6.285h4.862v3.148H48.865
		L48.865,41.057z"/>
	<path fill="#D2C398" d="M59.478,41.057l3.986-21.049h5.256l3.96,21.049h-4.291l-0.724-4.469h-3.072l-0.711,4.469H59.478z
		 M65.001,33.807h2.247l-1.13-8.149L65.001,33.807z"/>
	<path fill="#D2C398" d="M76.198,41.057V23.448H72.96v-3.44h11.096v3.44h-3.199v17.609H76.198z"/>
</g>
<g enable-background="new    ">
	<path fill="#FFFFFF" d="M86.69,24.936v-2.86h2.287v2.86H86.69z M86.69,41.057V27.484h2.287v13.573H86.69z"/>
	<path fill="#FFFFFF" d="M99.69,40.381c-0.141,0.068-0.322,0.15-0.547,0.246c-0.226,0.096-0.48,0.191-0.768,0.287
		c-0.285,0.094-0.598,0.172-0.936,0.232c-0.338,0.06-0.689,0.092-1.054,0.092c-0.832,0-1.552-0.23-2.157-0.689
		c-0.607-0.459-0.91-1.174-0.91-2.145v-9.126h-1.846v-1.794h1.846V22.96h2.287v4.523h3.043v1.794h-3.043v8.425
		c0.035,0.502,0.198,0.864,0.494,1.092c0.295,0.226,0.641,0.338,1.041,0.338c0.449,0,0.86-0.073,1.233-0.221
		s0.629-0.267,0.769-0.353L99.69,40.381z"/>
</g>
<g enable-background="new    ">
	<path fill="#D1B399" d="M101.017,41.057l2.209-21.049h8.074l-0.203,2.044h-5.23l-0.75,7.084h4.089l-0.216,2.043h-4.088
		l-1.041,9.877H101.017z"/>
	<path fill="#D1B399" d="M113.546,41.271c-0.854-0.008-1.535-0.359-2.043-1.054c-0.432-0.594-0.648-1.262-0.648-2.006
		c0-0.137,0.01-0.274,0.025-0.42c0.051-0.508,0.161-0.979,0.33-1.414c0.17-0.438,0.337-0.81,0.502-1.116
		c0.165-0.312,0.445-0.628,0.844-0.953c0.398-0.326,0.707-0.574,0.928-0.742c0.221-0.17,0.623-0.396,1.213-0.674
		c0.588-0.279,1.002-0.47,1.244-0.57c0.24-0.102,0.726-0.297,1.453-0.584c0.043-0.018,0.071-0.029,0.088-0.039l0.115-1.078
		c0.042-0.416,0.063-0.779,0.063-1.092c0-0.457-0.045-0.813-0.139-1.066c-0.16-0.423-0.551-0.631-1.168-0.622
		c-1.092,0-1.709,0.724-1.854,2.171l-0.09,0.737l-2.652-0.103c0.008-0.043,0.021-0.129,0.037-0.259
		c0.018-0.132,0.029-0.227,0.039-0.286c0.236-1.498,0.766-2.588,1.586-3.269c0.82-0.682,1.926-1.022,3.314-1.022
		c1.438-0.009,2.433,0.385,2.981,1.181c0.425,0.609,0.636,1.456,0.636,2.539c0,0.33-0.021,0.686-0.063,1.068l-0.726,6.918
		c-0.093,0.873-0.139,1.78-0.139,2.729c0,0.271,0.004,0.541,0.012,0.813h-2.449c-0.084-0.855-0.127-1.593-0.127-2.209
		c-0.287,0.686-0.715,1.26-1.283,1.727C115.011,41.039,114.333,41.271,113.546,41.271z M114.854,38.936
		c0.373,0,0.748-0.141,1.129-0.424c0.381-0.285,0.674-0.574,0.877-0.871l0.457-4.291c-0.06,0.025-0.141,0.068-0.242,0.127
		c-0.447,0.238-0.781,0.418-1.002,0.541c-0.221,0.121-0.502,0.305-0.844,0.545c-0.344,0.242-0.602,0.463-0.774,0.666
		s-0.337,0.459-0.488,0.771c-0.151,0.31-0.246,0.638-0.278,0.981c-0.019,0.146-0.025,0.279-0.025,0.406
		c0,0.432,0.08,0.779,0.24,1.041C114.104,38.768,114.423,38.936,114.854,38.936z"/>
	<path fill="#D1B399" d="M125.327,41.271c-1.219,0-2.158-0.385-2.818-1.154c-0.635-0.736-0.951-1.701-0.951-2.895
		c0-0.062,0-0.123,0-0.191l2.311-0.672c0.009,0.998,0.154,1.733,0.439,2.209c0.282,0.473,0.733,0.711,1.352,0.711
		c0.517,0,0.951-0.168,1.302-0.502s0.54-0.756,0.565-1.264c0.008-0.06,0.012-0.113,0.012-0.164c0-0.711-0.348-1.39-1.041-2.031
		l-2.285-2.146c-0.566-0.533-0.98-1.078-1.244-1.637c-0.186-0.406-0.279-0.877-0.279-1.41c0-0.203,0.014-0.415,0.039-0.635
		c0.152-1.168,0.604-2.073,1.353-2.717s1.706-0.965,2.875-0.965c1.135-0.009,1.989,0.359,2.563,1.104
		c0.551,0.711,0.821,1.612,0.813,2.704c0,0.051,0,0.102,0,0.152l-1.892,0.673c-0.018-0.863-0.146-1.52-0.388-1.968
		c-0.241-0.448-0.642-0.673-1.2-0.673c-0.474,0-0.867,0.15-1.18,0.451c-0.313,0.3-0.491,0.67-0.533,1.11
		c-0.009,0.06-0.014,0.118-0.014,0.178c0,0.542,0.217,1.02,0.648,1.436l2.36,2.387c0.601,0.592,1.062,1.201,1.384,1.828
		c0.254,0.49,0.381,1.065,0.381,1.727c0,0.178-0.009,0.355-0.025,0.533c-0.127,1.244-0.598,2.191-1.415,2.844
		C127.64,40.945,126.597,41.271,125.327,41.271z"/>
	<path fill="#D1B399" d="M135.483,41.26c-1.133,0-1.912-0.297-2.336-0.889c-0.338-0.475-0.512-1.135-0.52-1.98
		c0-0.221,0.012-0.449,0.037-0.686l1.041-9.877h-1.6l0.19-1.803h1.586l0.472-4.405h2.69l-0.472,4.405H139l-0.179,1.803h-2.426
		l-1.027,9.686c-0.018,0.17-0.024,0.326-0.024,0.471c0,0.382,0.06,0.66,0.179,0.838c0.16,0.244,0.508,0.367,1.041,0.367
		c0.414,0,0.766-0.024,1.053-0.076l-0.215,2.007C136.673,41.213,136.034,41.26,135.483,41.26z"/>
</g>
<g>
	<g>
		<path fill="#FFFFFF" d="M28.354,58.823C13.271,58.823,1,46.338,1,30.991C1,15.642,13.271,3.155,28.354,3.155
			c7.781,0,15.222,3.393,20.411,9.31l1.167,1.329L31.03,30.991l18.901,17.195l-1.166,1.328
			C43.575,55.431,36.137,58.823,28.354,58.823z M28.354,6.757c-13.098,0-23.754,10.87-23.754,24.232
			c0,13.36,10.655,24.233,23.754,24.233c6.16,0,12.077-2.459,16.49-6.799L25.679,30.991l19.166-17.436
			C40.433,9.215,34.515,6.757,28.354,6.757z"/>
	</g>
</g>
</svg>
